<svg xmlns="http://www.w3.org/2000/svg" xmlns:xlink="http://www.w3.org/1999/xlink" width="22cm" height="15cm" viewBox="298 158 423 283"><g><ellipse cx="410" cy="190" rx="30" ry="30" style="fill:#fff"/><ellipse cx="410" cy="190" rx="30" ry="30" style="fill:none;fill-opacity:0;stroke-width:2;stroke:#000"/></g><g><ellipse cx="541" cy="190" rx="30" ry="30" style="fill:#fff"/><ellipse cx="541" cy="190" rx="30" ry="30" style="fill:none;fill-opacity:0;stroke-width:2;stroke:#000"/></g><g><ellipse cx="470" cy="310" rx="30" ry="30" style="fill:#fff"/><ellipse cx="470" cy="310" rx="30" ry="30" style="fill:none;fill-opacity:0;stroke-width:2;stroke:#000"/></g><g><ellipse cx="400" cy="410" rx="30" ry="30" style="fill:#fff"/><ellipse cx="400" cy="410" rx="30" ry="30" style="fill:none;fill-opacity:0;stroke-width:2;stroke:#000"/></g><g><ellipse cx="550" cy="410" rx="30" ry="30" style="fill:#fff"/><ellipse cx="550" cy="410" rx="30" ry="30" style="fill:none;fill-opacity:0;stroke-width:2;stroke:#000"/></g><g><ellipse cx="330" cy="310" rx="30" ry="30" style="fill:#fff"/><ellipse cx="330" cy="310" rx="30" ry="30" style="fill:none;fill-opacity:0;stroke-width:2;stroke:#000"/></g><g><ellipse cx="610" cy="310" rx="30" ry="30" style="fill:#fff"/><ellipse cx="610" cy="310" rx="30" ry="30" style="fill:none;fill-opacity:0;stroke-width:2;stroke:#000"/></g><g><ellipse cx="690" cy="190" rx="30" ry="30" style="fill:#fff"/><ellipse cx="690" cy="190" rx="30" ry="30" style="fill:none;fill-opacity:0;stroke-width:2;stroke:#000"/></g><text x="410" y="196.25" font-size="18.062" style="fill:#000;text-anchor:middle;font-family:sans-serif;font-style:normal;font-weight:400"><tspan x="410" y="196.25">A</tspan></text><text x="541" y="196.25" font-size="18.062" style="fill:#000;text-anchor:middle;font-family:sans-serif;font-style:normal;font-weight:400"><tspan x="541" y="196.25">B</tspan></text><text x="690" y="196.25" font-size="18.062" style="fill:#000;text-anchor:middle;font-family:sans-serif;font-style:normal;font-weight:400"><tspan x="690" y="196.25">C</tspan></text><text x="330" y="316.25" font-size="18.062" style="fill:#000;text-anchor:middle;font-family:sans-serif;font-style:normal;font-weight:400"><tspan x="330" y="316.25">D</tspan></text><text x="470" y="316.25" font-size="18.062" style="fill:#000;text-anchor:middle;font-family:sans-serif;font-style:normal;font-weight:400"><tspan x="470" y="316.25">E</tspan></text><text x="610" y="316.25" font-size="18.062" style="fill:#000;text-anchor:middle;font-family:sans-serif;font-style:normal;font-weight:400"><tspan x="610" y="316.25">F</tspan></text><text x="400" y="416.25" font-size="18.062" style="fill:#000;text-anchor:middle;font-family:sans-serif;font-style:normal;font-weight:400"><tspan x="400" y="416.25">G</tspan></text><text x="550" y="416.25" font-size="18.062" style="fill:#000;text-anchor:middle;font-family:sans-serif;font-style:normal;font-weight:400"><tspan x="550" y="416.25">H</tspan></text><g><line x1="440" x2="501.264" y1="190" y2="190" style="fill:none;fill-opacity:0;stroke-width:2;stroke:#000"/><polygon points="508.764 190 498.764 195 501.264 190 498.764 185" style="fill:#000"/><polygon points="508.764 190 498.764 195 501.264 190 498.764 185" style="fill:none;fill-opacity:0;stroke-width:2;stroke:#000"/></g><g><line x1="541" x2="486.941" y1="220" y2="273.173" style="fill:none;fill-opacity:0;stroke-width:2;stroke:#000"/><polygon points="481.594 278.432 485.217 267.855 486.941 273.173 492.23 274.984" style="fill:#000"/><polygon points="481.594 278.432 485.217 267.855 486.941 273.173 492.23 274.984" style="fill:none;fill-opacity:0;stroke-width:2;stroke:#000"/></g><g><line x1="410" x2="347.392" y1="220" y2="273.664" style="fill:none;fill-opacity:0;stroke-width:2;stroke:#000"/><polygon points="341.698 278.545 346.036 268.241 347.392 273.664 352.544 275.833" style="fill:#000"/><polygon points="341.698 278.545 346.036 268.241 347.392 273.664 352.544 275.833" style="fill:none;fill-opacity:0;stroke-width:2;stroke:#000"/></g><g><line x1="610" x2="558.101" y1="340" y2="374.599" style="fill:none;fill-opacity:0;stroke-width:2;stroke:#000"/><polygon points="551.861 378.76 557.408 369.052 558.101 374.599 562.955 377.373" style="fill:#000"/><polygon points="551.861 378.76 557.408 369.052 558.101 374.599 562.955 377.373" style="fill:none;fill-opacity:0;stroke-width:2;stroke:#000"/></g><g><line x1="470" x2="541.292" y1="340" y2="375.646" style="fill:none;fill-opacity:0;stroke-width:2;stroke:#000"/><polygon points="548 379 536.82 379 541.292 375.646 541.292 370.056" style="fill:#000"/><polygon points="548 379 536.82 379 541.292 375.646 541.292 370.056" style="fill:none;fill-opacity:0;stroke-width:2;stroke:#000"/></g><g><line x1="470" x2="408.453" y1="340" y2="375.17" style="fill:none;fill-opacity:0;stroke-width:2;stroke:#000"/><polygon points="401.941 378.891 408.143 369.588 408.453 375.17 413.105 378.27" style="fill:#000"/><polygon points="401.941 378.891 408.143 369.588 408.453 375.17 413.105 378.27" style="fill:none;fill-opacity:0;stroke-width:2;stroke:#000"/></g><g><ellipse cx="690" cy="410" rx="30" ry="30" style="fill:#fff"/><ellipse cx="690" cy="410" rx="30" ry="30" style="fill:none;fill-opacity:0;stroke-width:2;stroke:#000"/></g><g><line x1="580" x2="650.264" y1="410" y2="410" style="fill:none;fill-opacity:0;stroke-width:2;stroke:#000"/><polygon points="657.764 410 647.764 415 650.264 410 647.764 405" style="fill:#000"/><polygon points="657.764 410 647.764 415 650.264 410 647.764 405" style="fill:none;fill-opacity:0;stroke-width:2;stroke:#000"/></g><text x="690" y="416.25" font-size="18.062" style="fill:#000;text-anchor:middle;font-family:sans-serif;font-style:normal;font-weight:400"><tspan x="690" y="416.25">I</tspan></text><g><ellipse cx="689.3" cy="308.6" rx="30" ry="30" style="fill:#fff"/><ellipse cx="689.3" cy="308.6" rx="30" ry="30" style="fill:none;fill-opacity:0;stroke-width:2;stroke:#000"/></g><text x="689.3" y="314.586" font-size="18.062" style="fill:#000;text-anchor:middle;font-family:sans-serif;font-style:normal;font-weight:400"><tspan x="689.3" y="314.586">K</tspan></text><g><line x1="690" x2="689.416" y1="220" y2="268.865" style="fill:none;fill-opacity:0;stroke-width:2;stroke:#000"/><polygon points="689.327 276.364 684.447 266.305 689.416 268.865 694.446 266.425" style="fill:#000"/><polygon points="689.327 276.364 684.447 266.305 689.416 268.865 694.446 266.425" style="fill:none;fill-opacity:0;stroke-width:2;stroke:#000"/></g></svg>