<svg xmlns="http://www.w3.org/2000/svg" xmlns:xlink="http://www.w3.org/1999/xlink" width="18cm" height="9cm" viewBox="368 278 353 163"><g><ellipse cx="470" cy="310" rx="30" ry="30" style="fill:#fff"/><ellipse cx="470" cy="310" rx="30" ry="30" style="fill:none;fill-opacity:0;stroke-width:2;stroke:#000"/></g><g><ellipse cx="400" cy="410" rx="30" ry="30" style="fill:#fff"/><ellipse cx="400" cy="410" rx="30" ry="30" style="fill:none;fill-opacity:0;stroke-width:2;stroke:#000"/></g><g><ellipse cx="550" cy="410" rx="30" ry="30" style="fill:#fff"/><ellipse cx="550" cy="410" rx="30" ry="30" style="fill:none;fill-opacity:0;stroke-width:2;stroke:#000"/></g><text x="470" y="316.25" font-size="18.062" style="fill:#000;text-anchor:middle;font-family:sans-serif;font-style:normal;font-weight:400"><tspan x="470" y="316.25">E</tspan></text><text x="400" y="416.25" font-size="18.062" style="fill:#000;text-anchor:middle;font-family:sans-serif;font-style:normal;font-weight:400"><tspan x="400" y="416.25">G</tspan></text><text x="550" y="416.25" font-size="18.062" style="fill:#000;text-anchor:middle;font-family:sans-serif;font-style:normal;font-weight:400"><tspan x="550" y="416.25">H</tspan></text><g><line x1="470" x2="541.292" y1="340" y2="375.646" style="fill:none;fill-opacity:0;stroke-width:2;stroke:#000"/><polygon points="548 379 536.82 379 541.292 375.646 541.292 370.056" style="fill:#000"/><polygon points="548 379 536.82 379 541.292 375.646 541.292 370.056" style="fill:none;fill-opacity:0;stroke-width:2;stroke:#000"/></g><g><line x1="470" x2="408.453" y1="340" y2="375.17" style="fill:none;fill-opacity:0;stroke-width:2;stroke:#000"/><polygon points="401.941 378.891 408.143 369.588 408.453 375.17 413.105 378.27" style="fill:#000"/><polygon points="401.941 378.891 408.143 369.588 408.453 375.17 413.105 378.27" style="fill:none;fill-opacity:0;stroke-width:2;stroke:#000"/></g><g><ellipse cx="690" cy="410" rx="30" ry="30" style="fill:#fff"/><ellipse cx="690" cy="410" rx="30" ry="30" style="fill:none;fill-opacity:0;stroke-width:2;stroke:#000"/></g><g><line x1="580" x2="650.264" y1="410" y2="410" style="fill:none;fill-opacity:0;stroke-width:2;stroke:#000"/><polygon points="657.764 410 647.764 415 650.264 410 647.764 405" style="fill:#000"/><polygon points="657.764 410 647.764 415 650.264 410 647.764 405" style="fill:none;fill-opacity:0;stroke-width:2;stroke:#000"/></g><text x="690" y="416.25" font-size="18.062" style="fill:#000;text-anchor:middle;font-family:sans-serif;font-style:normal;font-weight:400"><tspan x="690" y="416.25">I</tspan></text></svg>