<svg xmlns="http://www.w3.org/2000/svg" xmlns:xlink="http://www.w3.org/1999/xlink" width="10cm" height="10cm" viewBox="378 158 194 183"><g><ellipse cx="410" cy="190" rx="30" ry="30" style="fill:#fff"/><ellipse cx="410" cy="190" rx="30" ry="30" style="fill:none;fill-opacity:0;stroke-width:2;stroke:#000"/></g><g><ellipse cx="541" cy="190" rx="30" ry="30" style="fill:#fff"/><ellipse cx="541" cy="190" rx="30" ry="30" style="fill:none;fill-opacity:0;stroke-width:2;stroke:#000"/></g><g><ellipse cx="470" cy="310" rx="30" ry="30" style="fill:#fff"/><ellipse cx="470" cy="310" rx="30" ry="30" style="fill:none;fill-opacity:0;stroke-width:2;stroke:#000"/></g><text x="410" y="196.25" font-size="18.062" style="fill:#000;text-anchor:middle;font-family:sans-serif;font-style:normal;font-weight:400"><tspan x="410" y="196.25">A</tspan></text><text x="541" y="196.25" font-size="18.062" style="fill:#000;text-anchor:middle;font-family:sans-serif;font-style:normal;font-weight:400"><tspan x="541" y="196.25">B</tspan></text><text x="470" y="316.25" font-size="18.062" style="fill:#000;text-anchor:middle;font-family:sans-serif;font-style:normal;font-weight:400"><tspan x="470" y="316.25">E</tspan></text><g><line x1="440" x2="501.264" y1="190" y2="190" style="fill:none;fill-opacity:0;stroke-width:2;stroke:#000"/><polygon points="508.764 190 498.764 195 501.264 190 498.764 185" style="fill:#000"/><polygon points="508.764 190 498.764 195 501.264 190 498.764 185" style="fill:none;fill-opacity:0;stroke-width:2;stroke:#000"/></g><g><line x1="541" x2="486.941" y1="220" y2="273.173" style="fill:none;fill-opacity:0;stroke-width:2;stroke:#000"/><polygon points="481.594 278.432 485.217 267.855 486.941 273.173 492.23 274.984" style="fill:#000"/><polygon points="481.594 278.432 485.217 267.855 486.941 273.173 492.23 274.984" style="fill:none;fill-opacity:0;stroke-width:2;stroke:#000"/></g></svg>